<?xml version="1.0" encoding="utf-8"?>
<!-- Generator: Adobe Illustrator 12.0.1, SVG Export Plug-In . SVG Version: 6.00 Build 51448)  -->
<!DOCTYPE svg PUBLIC "-//W3C//DTD SVG 1.1//EN" "http://www.w3.org/Graphics/SVG/1.1/DTD/svg11.dtd" [
	<!ENTITY ns_svg "http://www.w3.org/2000/svg">
	<!ENTITY ns_xlink "http://www.w3.org/1999/xlink">
]>
<svg  version="1.1" id="Ebene_1" xmlns="&ns_svg;" xmlns:xlink="&ns_xlink;" width="1207.801" height="304.741"
	 viewBox="0 0 1207.801 304.741" overflow="visible" enable-background="new 0 0 1207.801 304.741" xml:space="preserve">
<path fill-rule="evenodd" clip-rule="evenodd" d="M1090.08,304.199c84.778-5.039,117.721-43.379,117.721-120.059v-63.36
	c0-82.62-36.722-115.919-117.721-120.42v29.52c61.199,3.96,88.379,29.16,88.379,86.219v72.54c0,59.58-29.699,82.439-88.379,86.221
	V304.199L1090.08,304.199z M1090.08,248.579v-5.578c39.959-2.701,55.621-25.381,55.621-60.12v-60.66
	c0-34.38-15.301-57.96-55.621-60.84V56.34c41.761,2.7,60.66,26.279,60.66,65.339v61.201
	C1150.74,219.241,1134.541,245.521,1090.08,248.579L1090.08,248.579z M1090.08,222.661v-3.779l0,0
	c10.262,0,18.359-8.101,18.359-19.263c0-10.798-8.098-19.077-18.359-19.077l0,0v-3.781l0,0c12.239,0,22.859,9.719,22.859,22.858
	C1112.939,212.939,1102.319,222.661,1090.08,222.661L1090.08,222.661L1090.08,222.661z M1090.08,201.78v-3.602l0,0
	c3.24,0,6.302-0.359,6.302-4.318c0-3.421-3.062-3.961-5.762-3.961h-0.54v-3.42h1.08c6.301,0,9.359,2.342,9.359,7.561
	c0,4.681-3.059,6.839-6.838,7.2l7.378,11.699h-4.319L1090.08,201.78L1090.08,201.78z M1090.08,106.2V78.12h24.84L1090.08,106.2z
	 M1070.1,0h-43.381v29.341h44.641c6.66,0,12.781,0.18,18.721,0.54V0.36C1083.599,0.181,1076.938,0,1070.1,0L1070.1,0z
	 M1026.719,304.741h43.381c6.839,0,13.499-0.181,19.98-0.542V274.86c-5.939,0.359-12.238,0.54-18.721,0.54h-44.641V304.741
	L1026.719,304.741z M1090.08,56.34v5.041c-2.881-0.181-5.759-0.181-8.64-0.181h-54.722v-5.22h54.722
	C1084.321,55.98,1087.199,56.16,1090.08,56.34L1090.08,56.34z M1090.08,78.12v28.08l-39.421,44.46l3.601,74.34h-27.541V78.12h20.342
	l1.799,39.06l34.92-39.06H1090.08L1090.08,78.12z M1090.08,176.761c-12.6,0-23.039,9.719-23.039,22.858
	c0,13.32,10.439,23.042,23.039,23.042v-3.779c-10.441,0-18.539-8.101-18.539-19.263c0-10.798,8.098-18.899,18.539-19.077V176.761
	L1090.08,176.761z M1090.08,186.479h-8.82v26.46h3.96v-11.519h4.681l0.18,0.359v-3.602h-4.86v-8.279h4.86V186.479L1090.08,186.479z
	 M1090.08,243.001v5.578c-2.881,0.181-5.759,0.181-8.64,0.181h-54.722v-5.4h54.722
	C1084.321,243.359,1087.199,243.179,1090.08,243.001z M1026.719,0h-66.6v29.341h66.6V0L1026.719,0z M960.119,304.741h66.6V275.4
	h-66.6V304.741L960.119,304.741z M1026.719,55.98v5.22h-66.6v-5.22H1026.719L1026.719,55.98z M1026.719,78.12V225h-17.817
	l-2.341-41.761L969.302,225h-9.183v-24.3l44.642-50.04l-3.242-72.54H1026.719L1026.719,78.12z M1026.719,243.359v5.4h-66.6v-5.4
	H1026.719L1026.719,243.359z M960.119,160.2l16.561-44.46c4.141-11.88,5.039-18,5.039-21.06c0-12.78-10.62-16.2-21.6-16.56V160.2z
	 M960.119,0h-52.38v29.341h52.38V0L960.119,0z M907.739,304.741h52.38V275.4h-52.38V304.741L907.739,304.741z M960.119,55.98v5.22
	h-52.38v-5.22H960.119L960.119,55.98z M960.119,78.12v82.08l-14.58,39.6c-7.92,21.602-9.18,25.2-29.519,25.2h-8.281v-52.021
	l17.1-45.718c2.341-6.48,3.242-8.821,3.242-11.521c0-3.24-1.802-5.039-5.942-5.039c-5.039,0-6.479,3.6-11.519,16.919l-2.881,7.38
	V78.12h49.683C958.32,78.12,959.219,78.12,960.119,78.12L960.119,78.12z M960.119,200.7L938.521,225h21.599V200.7L960.119,200.7z
	 M960.119,243.359v5.4h-52.38v-5.4H960.119z M907.739,0h-61.198v29.341h61.198V0L907.739,0z M846.541,304.741h61.198V275.4h-61.198
	V304.741L846.541,304.741z M907.739,55.98v5.22h-61.198v-5.22H907.739L907.739,55.98z M907.739,78.12V135l-17.817,46.979
	c-1.44,4.141-1.802,5.94-1.802,7.2c0,3.242,2.7,6.12,5.94,6.12c5.041,0,6.479-2.341,8.64-8.82l5.039-13.501V225h-56.88
	c-1.619,0-3.059,0-4.318-0.181V170.28l25.92-70.2C878.94,83.16,883.081,78.12,907.739,78.12L907.739,78.12L907.739,78.12z
	 M907.739,243.359v5.4h-61.198v-5.4H907.739L907.739,243.359z M846.541,133.201l9.357-27.18c2.342-6.841,3.242-10.98,3.242-13.32
	c0-8.64-5.22-12.419-12.6-13.86V133.201z M846.541,0h-48.24v29.341h48.24V0L846.541,0z M798.301,304.741h48.24V275.4h-48.24V304.741
	L798.301,304.741z M846.541,55.98v5.22h-48.24v-5.22H846.541L846.541,55.98z M846.541,78.84v54.36l-2.161,5.94
	c-3.239,9.18-5.039,10.979-12.419,13.319v19.801l-14.222,38.159c-2.881,8.101-7.559,12.061-19.438,13.682v-88.921
	c3.24-0.72,5.039-2.881,6.118-6.48l3.242-8.82c0.54-1.8,0.898-3.24,0.898-5.041c0-3.239-0.898-5.04-5.039-5.04h-5.22V78.12h37.798
	C839.881,78.12,843.301,78.301,846.541,78.84L846.541,78.84z M846.541,170.28l-8.102,21.78c-4.138,10.439-4.499,11.88-4.499,16.919
	c0,9.541,3.96,14.58,12.601,15.84V170.28L846.541,170.28z M846.541,243.359v5.4h-48.24v-5.4H846.541z M798.301,0h-15.659v29.341
	h15.659V0L798.301,0z M782.642,304.741h15.659V275.4h-15.659V304.741L782.642,304.741z M798.301,55.98v5.22h-15.659v-5.22H798.301
	L798.301,55.98z M798.301,78.12v31.68h-1.079l-9.36,25.741h7.378c1.079,0,2.161-0.181,3.062-0.36v88.921
	c-4.141,0.537-9.36,0.898-15.659,0.898v-36.719c0.179-0.361,0.179-0.542,0.358-0.901l3.24-8.82c0.361-1.799,0.898-3.059,0.898-5.039
	c0-2.881-1.26-4.68-4.497-4.861V78.12H798.301L798.301,78.12z M798.301,243.359v5.4h-15.659v-5.4H798.301z M782.642,0h-56.521
	v29.341h56.521V0L782.642,0z M726.121,304.741h56.521V275.4h-56.521V304.741L726.121,304.741z M782.642,55.98v5.22h-56.521v-5.22
	H782.642L782.642,55.98z M782.642,78.12v90.539c-0.361-0.178-0.723-0.178-1.081-0.178h-6.48l-9.182,25.737h7.383
	c4.678,0,7.92-1.978,9.36-5.938V225c-0.901,0-1.982,0-3.062,0h-53.459v-54.18l34.199-92.7H782.642L782.642,78.12z M782.642,243.359
	v5.4h-56.521v-5.4H782.642L782.642,243.359z M726.121,131.76l19.978-53.64h-19.978V131.76z M726.121,0H603.9v29.341h122.221V0
	L726.121,0z M603.9,304.741h122.221V275.4H603.9V304.741L603.9,304.741z M726.121,55.98v5.22H603.9v-5.22H726.121L726.121,55.98z
	 M726.121,78.12v53.64L691.561,225h-46.98l23.039-59.58h-14.758L630,225h-26.1v-56.341l33.299-90.539h47.342l-20.161,55.62h14.219
	l20.161-55.62H726.121L726.121,78.12z M726.121,170.82L706.141,225h19.98V170.82L726.121,170.82z M726.121,243.359v5.4H603.9v-5.4
	H726.121L726.121,243.359z M603.9,108.9h9l10.981-30.78H603.9V108.9z M603.9,0H361.08v29.341H603.9V0L603.9,0z M361.08,304.741
	H603.9V275.4H361.08V304.741L361.08,304.741z M603.9,55.98v5.22H361.08v-5.22H603.9L603.9,55.98z M603.9,78.12v30.78h-20.88
	l-30.959,83.521h30.6L570.42,225H517.5c-10.439,0-16.379-5.039-16.379-15.12c0-4.141,0.9-9.18,2.699-14.221L535.86,108.9h-30.78
	L462.061,225h-46.98l42.3-116.1h-31.14L383.04,225H361.08v-69.3h0.36l10.079-27.54c2.881-6.839,3.24-7.74,3.24-10.98
	s-1.439-5.041-5.039-5.041c-3.781,0-6.3,1.98-8.641,6.481v-40.5h0.721h36.72c23.579,0,27.72,5.04,28.979,15.12l18.36-15.12H534.6
	l7.38,14.58c5.4-14.58,8.64-14.58,27.541-14.58H603.9L603.9,78.12z M603.9,168.659L583.02,225h20.88V168.659L603.9,168.659z
	 M603.9,243.359v5.4H361.08v-5.4H603.9z M361.08,0h-71.46v29.341h71.46V0L361.08,0z M289.62,304.741h71.46V275.4h-71.46V304.741
	L289.62,304.741z M361.08,55.98v5.22h-71.46v-5.22H361.08L361.08,55.98z M361.08,78.12v40.5c-1.44,2.52-2.7,5.94-4.141,10.08
	l-9.719,27h13.859V225h-25.379l14.22-37.979H335.16L320.94,225h-31.32v-41.938L318.6,103.86C326.34,82.44,332.28,78.12,361.08,78.12
	L361.08,78.12z M361.08,243.359v5.4h-71.46v-5.4H361.08L361.08,243.359z M289.62,142.92l9.359-25.74
	c4.68-13.32,6.121-19.44,6.121-22.5c0-9.18-5.58-14.041-15.48-16.2V142.92z M289.62,0h-91.8v29.341h91.8V0L289.62,0z
	 M197.82,304.741h91.8V275.4h-91.8V304.741L197.82,304.741z M289.62,55.98v5.22h-91.8v-5.22H289.62L289.62,55.98z M289.62,78.48
	v64.439L259.561,225H212.76l35.82-96.84c2.7-6.839,2.7-7.74,2.7-10.62c0-3.6-0.9-5.4-4.68-5.4c-5.94,0-8.641,5.041-12.781,16.381
	L198,225h-0.181V77.581c3.96-0.541,8.28-0.901,12.96-0.901c16.56,0,23.039,2.7,31.319,8.28c10.62-5.039,18.9-7.739,32.581-7.739
	C280.44,77.221,285.3,77.581,289.62,78.48L289.62,78.48z M289.62,183.062L274.141,225h15.479V183.062L289.62,183.062z
	 M289.62,243.359v5.4h-91.8v-5.4H289.62z M197.82,0h-59.94C37.62,0,0,36.72,0,120.78v63.36c0,88.021,43.74,120.601,137.88,120.601
	h59.94V275.4H136.44c-74.341,0-106.92-24.479-106.92-86.761V116.1c0-65.699,35.82-86.759,106.92-86.759h61.379V0L197.82,0z
	 M197.82,55.98v5.22h-72c-46.44,0-64.26,23.76-64.26,61.021v60.66c0,36.719,16.92,60.479,63.719,60.479h72.541v5.4h-72.541
	c-47.699,0-69.299-24.121-69.299-65.879V121.68c0-38.52,18.359-65.699,69.299-65.699H197.82L197.82,55.98z M197.82,77.581V225
	h-47.16l35.819-96.84c2.881-6.839,3.241-7.74,3.241-10.62c0-3.6-0.901-5.4-4.501-5.4c-6.119,0-8.819,5.041-12.96,16.381L136.44,225
	H90.54L135,104.22l-19.62-36.179h48.6L174.06,84.96C183.6,81.181,190.44,78.84,197.82,77.581z"/>
</svg>
