<svg xmlns="http://www.w3.org/2000/svg" width="2679" height="1015" viewBox="0 0 2679 1015"><path fill="#aca8a8" fill-rule="evenodd" d="M221.34 55.998c-1.53.617-2.63 2.567-3.773 6.686-7.966 28.726-23.478 52.904-44.567 69.467-19.969 15.684-52.127 28.348-79.772 31.416-3.45.383-6.555 1.153-6.9 1.711-.902 1.46 9.868.128 23.593-2.92 46.728-10.374 80.814-35.397 99.245-72.856 4.022-8.175 7.235-16.978 11.406-31.252.28-.959 6.431-1.25 26.388-1.25h26.023l.259 55.75.258 55.75 55.25.258 55.25.259v57.75l-2.714.519c-1.493.285-4.193.279-6-.015-1.885-.305-3.286-.105-3.286.47 0 1.695 7.861 2.435 10.817 1.018l2.683-1.285.266-28.274c.172-18.356-.103-28.962-.786-30.237-1.024-1.914-2.412-1.963-55.515-1.963H275v-54.8c0-41.289-.296-55.096-1.2-56-1.43-1.43-48.96-1.613-52.46-.202M1622.5 65c-.4.648 4.176 1 13 1s13.4-.352 13-1c-.358-.58-5.824-1-13-1s-12.642.42-13 1m-15.418 2.517c-14.554 4.104-28.8 12.528-35.371 20.914-5.786 7.385-9.828 18.569-6.711 18.569.55 0 1-1.231 1-2.736 0-8.62 12.261-22.212 26.315-29.17 7.9-3.911 21.515-8.094 26.345-8.094 1.287 0 2.34-.45 2.34-1 0-1.578-4.8-1.055-13.918 1.517M1650 65.756c0 .557 2.501 1.326 5.558 1.708 12.676 1.584 29.025 9.206 38.067 17.748 20.702 19.557 13.829 45.934-15.653 60.068-9.731 4.666-19.283 7.484-28.645 8.45-2.93.302-5.327.999-5.327 1.548 0 1.333 9.251.205 19.468-2.374 13.269-3.35 23.931-9.091 32.127-17.299 8.639-8.652 11.763-15.476 11.783-25.737.032-16.729-15.942-33.462-39.378-41.249-8.736-2.903-18-4.376-18-2.863m-86 50.122c0 3.085 2.951 9.299 6.954 14.641 7.305 9.747 20.368 17.833 35.566 22.014 10.762 2.961 20.48 4.193 20.48 2.596 0-.621-1.321-1.129-2.935-1.129-7.637 0-23.317-4.574-33.773-9.853-11.681-5.896-24.292-20.351-24.292-27.843 0-1.267-.45-2.304-1-2.304s-1 .845-1 1.878m-990.46 40.057c-.354.574 24.417 1.121 64.191 1.418 35.623.266 66.794.791 69.269 1.167 3.115.474 4.192.364 3.5-.359-.55-.574-5.66-1.52-11.356-2.103-13.038-1.332-124.788-1.442-125.604-.123M1628.5 156c.34.55 3.49 1 7 1s6.66-.45 7-1c.391-.633-2.176-1-7-1s-7.391.367-7 1m289.5-.299c-22.22 1.339-52.828 9.182-73.805 18.913-19.108 8.863-32.036 18.026-47.695 33.803-22.531 22.701-36.216 49.386-42.743 83.341-2.046 10.646-2.257 14.682-2.257 43.242 0 25.38.349 33.734 1.797 43 6.618 42.356 18.656 69.207 41.076 91.626 22.098 22.096 48.274 33.42 89.968 38.919 14.931 1.969 39.659 3.071 39.659 1.767 0-.593-6.196-1.263-15.25-1.648-31.97-1.361-63.708-8.439-83.796-18.687-9.995-5.099-21.419-13.424-29.787-21.704-22.415-22.182-35.606-53.675-40.692-97.151-2.018-17.248-1.986-57.713.055-71.379 6.123-40.983 22.818-73.363 50.143-97.252 25.613-22.393 55.403-35.846 94.327-42.598 11.201-1.944 17.161-2.217 57.364-2.633 30.473-.316 48.597-.086 56.5.715 63.5 6.436 113.481 37.795 141.096 88.525 3.877 7.121 11.539 25.646 12.512 30.25l.687 3.25h-77.58c-42.668 0-77.595-.113-77.614-.25-.926-6.639-3.277-16.626-4.96-21.074-4.53-11.971-17.372-24.629-28.268-27.864-2.33-.691-8.31-1.27-13.289-1.285-8.473-.025-9.538.213-16.645 3.726-12.297 6.077-21.595 17.77-25.35 31.878-1.67 6.273-1.926 13.28-.453 12.369.55-.34 1-2.119 1-3.954 0-5.342 3.656-15.704 7.807-22.126 17.917-27.72 53.84-26.767 70.625 1.874 3.03 5.171 6.568 16.666 6.568 21.342 0 1.728.787 4.101 1.75 5.272l1.75 2.129 78-.268 78-.269-.206-3.63c-.365-6.425-10.552-30.007-17.872-41.37-29.773-46.22-77.942-74.45-137.278-80.452-9.233-.934-81.051-1.196-95.144-.347m-1357.5 1.026c-5.804.826-5.348 2.57.5 1.911 3.025-.342 6.737-.625 8.25-.629S572 157.55 572 157c0-.982-5.588-1.115-11.5-.273m564.5-.006c-6.954 1.247-1.96 1.78 16.8 1.792 18.152.012 21.761.288 29.321 2.246 18.098 4.688 37.295 13.784 51.927 24.603 10.192 7.536 26.071 22.515 31.958 30.146 2.33 3.02 4.782 5.492 5.447 5.492.666 0 2.734-2.363 4.596-5.25 4.716-7.314 18.837-21.302 28.901-28.63 4.647-3.385 13.197-8.574 19-11.533 9.746-4.97 27.225-11.587 30.607-11.587.794 0 1.443-.45 1.443-1 0-1.549-1.475-1.258-12.714 2.502-13.919 4.658-27.923 11.978-39.94 20.875-9.86 7.302-23.653 20.865-28.346 27.875-1.375 2.054-2.979 3.737-3.563 3.741s-4.185-3.598-8-8.005c-13.546-15.645-32.319-30.327-50.437-39.445-20.854-10.494-38.068-14.617-60.157-14.407-7.889.075-15.468.338-16.843.585m-581 3.34c-19.564 5.087-42.473 15.576-57.181 26.18-34.998 25.233-58.438 58.032-69.46 97.195C413.845 295.922 413.48 298 414.8 298c.44 0 1.365-2.736 2.056-6.081 3.414-16.532 13.244-39.595 23.736-55.692 24.057-36.907 61.955-64.007 103.656-74.12 5.912-1.434 10.75-2.945 10.75-3.357.003-1.154-2.813-.818-10.998 1.311m168-1.22c0 .462 2.587 1.399 5.75 2.081 30.46 6.568 58.69 21.597 82.316 43.822 24.825 23.353 44.058 58.026 50.665 91.339.973 4.904 2.106 8.916 2.519 8.916 1.247.001.866-3.011-1.747-13.796-3.138-12.949-7.886-27.351-10.949-33.203a5829 5829 0 0 0-5.886-11.204c-12.625-23.97-35.663-48.556-60.563-64.632-12.65-8.167-31.521-16.511-46.837-20.708-13.273-3.638-15.268-3.98-15.268-2.615m399.44 1.037c-7.375 2.112-17.722 6.374-26.44 10.891-7.511 3.892-26.533 16.6-32.75 21.88l-4.25 3.61v-15.007c0-12.225-.283-15.242-1.524-16.272-.838-.696-1.851-.914-2.25-.486s-.163.981.524 1.226c.928.332 1.25 4.501 1.25 16.197 0 8.662.27 16.019.6 16.349s3.987-2.092 8.128-5.383c19.543-15.53 43.854-28.455 60.057-31.93 2.868-.615 5.215-1.531 5.215-2.036 0-1.239-1.444-1.077-8.56.961m249.56-1.147c-1.925.227-3.949.851-4.498 1.388-1.269 1.242 20.593.003 21.948-1.245.942-.866-10.493-.96-17.45-.143m25-.026c0 .562 4.68 1.254 10.75 1.59 30.702 1.699 61.942 16.804 82.42 39.853 14.102 15.873 25.181 36.214 28.097 51.584 1.352 7.129 3.316 8.641 2.284 1.759-1.765-11.772-10.913-31.553-20.392-44.096-19.286-25.522-44.954-42.007-76.159-48.913-9.16-2.027-27-3.201-27-1.777m-490.345 6.124c-1.526 1.686-1.655 14.846-1.655 168.965 0 164.219.034 167.154 1.934 168.171 1.283.686 26.684 1.035 75.444 1.035h73.509l1.556-2.223c1.388-1.98 1.557-14.872 1.557-118.437V266.126l4.969-9.872c5.846-11.614 14.195-20.714 22.95-25.013 5.062-2.486 6.609-2.741 16.634-2.741 10.772 0 11.248.096 18.696 3.778 8.439 4.171 13.291 9.005 17.254 17.192 3.165 6.536 5.497 15.733 5.497 21.681 0 2.602.45 5.009 1 5.349 1.356.838 1.293-7.995-.105-14.701-2.97-14.243-13.79-28.244-25.395-32.861-5.083-2.022-7.757-2.391-17.5-2.411-14.415-.03-18.233 1.599-29.089 12.413-5.989 5.967-8.571 9.531-12.25 16.912l-4.661 9.351-.015 116.649c-.009 64.156-.375 117.213-.813 117.904-.631.994-16.247 1.203-74.735 1L896.5 500.5v-335l72.305-.257c47.564-.168 72.095-.596 71.691-1.25-.397-.642-25.77-.993-71.9-.993-67.791 0-71.367.09-72.941 1.829M58.2 167.2c-.875.875-1.2 8.677-1.2 28.845 0 25.512.141 27.773 1.829 29.3 1.629 1.475 5.711 1.655 37.5 1.655H132v84c0 55.648.339 84 1.006 84 .668 0 .92-28.43.75-84.75l-.256-84.75-37-.5-37-.5-.266-28.25-.265-28.25 2.265-.115c1.246-.063 3.103-.027 4.125.081 1.11.118 1.59-.239 1.191-.885-.902-1.46-6.856-1.375-8.35.119m1507 1c-1.665 1.665-1.513 3.305.177 1.902 1.01-.838 20.019-1.07 71.415-.872 55.942.216 69.83.018 69.001-.98-1.479-1.782-138.812-1.831-140.593-.05m796.55-.518c-2.613.235-4.75.74-4.75 1.123 0 .382 19.328.695 42.951.695q42.95 0 41.949-1c-.996-.996-70.308-1.703-80.15-.818m-21.72 2.94c-4.659.78-8.934 1.912-9.5 2.515-.74.787-.044.939 2.47.54 1.925-.306 7.438-1.114 12.25-1.797s8.75-1.609 8.75-2.06c0-1.11-3.882-.887-13.97.802m104.97-.738c0 .614 1.238 1.119 2.75 1.122 4.585.01 21.685 2.809 33.911 5.551 40.929 9.18 77.527 28.168 95.373 49.483 6.318 7.547 13.208 19.625 15.961 27.978 2.801 8.502 2.807 8.514 3.564 7.756.896-.896-2.553-11.745-5.809-18.274-16.505-33.089-58.75-58.771-115.089-69.965-20.363-4.046-30.661-5.272-30.661-3.651m-739 166.057V499h-4.5c-2.475 0-4.5.45-4.5 1 0 1.417 8.354 1.246 9.8-.2 1.565-1.565 1.764-325.334.2-326.3-.665-.411-1 53.99-1 162.441m618.5-162.222c-15.226 3.71-37.319 13.041-53.143 22.445-18.382 10.926-36.154 29.648-46.96 49.473-8.408 15.424-15.624 37.18-13.272 40.013.922 1.112 14.832 1.35 78.875 1.35 86.93 0 79.57.682 81.101-7.512 2.793-14.947 15.763-28.331 33.899-34.982 7.037-2.58 22.59-3.136 29.241-1.044 12.775 4.018 20.413 13.921 21.465 27.827 1.011 13.369-4.752 21.607-20.111 28.751-9.51 4.423-24.007 8.227-40.367 10.592-6.45.932-12.155 2.071-12.678 2.531-1.496 1.318 2.941 1.002 15.95-1.134 33.809-5.552 51.473-14.241 57.519-28.296 1.865-4.334 2.146-6.374 1.696-12.324-.723-9.554-3.737-16.194-10.07-22.184-7.463-7.057-12.59-8.731-26.645-8.697-9.363.022-12.602.438-17.432 2.238-18.363 6.843-32.683 22.205-34.332 36.828-.39 3.465-.962 4.546-2.618 4.945-1.165.282-36.318.388-78.118.236l-76-.275.329-3.5c.881-9.366 10.994-32.471 20.302-46.382 6.655-9.947 17.785-21.818 27.134-28.943 14.724-11.22 38.23-22.502 59.113-28.371 5.292-1.488 9.622-3.065 9.622-3.504 0-.85-1.251-.872-4.5-.081m-1701 51.67c-11.77 2.869-24.62 12.63-31.232 23.725-1.777 2.983-4.14 8.974-5.25 13.314-1.914 7.487-2.017 10.953-2.001 67.482.019 64.298.232 67.397 5.355 78.016 3.898 8.081 10.239 15.649 16.762 20.004 6.23 4.161 15.484 8.07 19.104 8.07 3.111 0 1.035-1.443-4.238-2.944-14.987-4.267-26.296-15.203-32.114-31.056l-2.386-6.5v-64c0-68.497-.002-68.466 5.109-78.5 8.647-16.979 25.335-27.052 44.69-26.976 18.414.073 35.133 10.614 43.086 27.163 2.032 4.229 3.966 9.979 4.297 12.78.652 5.505 2.326 7.93 2.306 3.342-.018-4.306-2.385-12.215-5.478-18.303-3.532-6.953-14.437-17.922-21.249-21.374-10.693-5.418-25.113-7.083-36.761-4.243m-348.826 3.08c-1.536 1.535-1.674 7.871-1.674 76.602 0 49.286.342 74.929 1 74.929s1-25.667 1-75v-75h18.441c11.215 0 18.683-.392 19.059-1 .401-.649-4.576-1.004-14.191-1.011-8.145-.006-16.418-.277-18.385-.603-2.604-.43-4.031-.136-5.25 1.083M322.5 229c.36.583 5.991 1 13.5 1s13.14-.417 13.5-1c.401-.649-4.343-1-13.5-1s-13.901.351-13.5 1m991.5 2.829c-11.006 3.658-18.591 9.434-24.538 18.687-7.472 11.625-6.904 1.697-7.462 130.484l-.5 115.5-71.937.257c-56.002.199-72.105-.016-72.695-.971-.418-.676-1.073-.914-1.456-.531s-.128 1.383.568 2.221c1.112 1.34 10.013 1.524 73.607 1.524 70.5 0 72.369-.049 73.378-1.934.696-1.301 1.035-38.917 1.035-114.819 0-122.791-.244-117.19 5.569-127.592 1.41-2.522 4.623-6.876 7.14-9.676 12.101-13.46 34.622-16.993 51.954-8.151 7.991 4.077 16.698 16.539 19.43 27.808 1.282 5.288 2.914 8.001 2.896 4.814-.038-6.952-6.963-20.888-14.093-28.364-7.456-7.817-13.81-10.36-26.896-10.762-8.157-.251-11.727.085-16 1.505M1509 379.5c0 80.157.335 120.411 1 120 .658-.406 1-41.491 1-120s-.342-119.594-1-120c-.665-.411-1 39.843-1 120m-139 6.3c0 86.4.281 113.081 1.2 114 1.558 1.558 128.34 1.754 129.3.2.41-.663-21.156-1-63.941-1H1372V386c0-74.667-.339-113-1-113s-1 38.267-1 112.8m-684-55.3c0 35.667.346 54.5 1 54.5s1-18.833 1-54.5-.346-54.5-1-54.5-1 18.833-1 54.5m1912.078-42.613c.101 4.988.575 8.827 1.053 8.532 1.249-.772 1.082-16.169-.184-16.951-.711-.44-.993 2.284-.869 8.419M1921 336.5c0 36.333.345 55.5 1 55.5s1-19.167 1-55.5-.345-55.5-1-55.5-1 19.167-1 55.5m678-14.5c0 15.824.344 23.905 1 23.5.62-.383 1-9.324 1-23.5s-.38-23.117-1-23.5c-.656-.405-1 7.676-1 23.5M853.371 311.897c.346 3.518.629 9.03.629 12.25 0 3.752.414 5.853 1.153 5.853 1.532 0 .345-21.935-1.269-23.437-.851-.793-.982.563-.513 5.334m-441.704 1.77c-1.098 1.098-.782 35.144.333 35.833.653.404 1-5.823 1-17.941 0-10.207-.15-18.559-.333-18.559s-.634.3-1 .667m1925.833 3.434c-18.607 2.657-39.125 6.265-39.95 7.024-1.493 1.375 1.807 1.063 16.95-1.605 7.7-1.356 19.287-3.024 25.75-3.706s11.75-1.594 11.75-2.027c0-.969-6.502-.828-14.5.314m-59 10.084c-40.765 9.97-66.629 31.433-74.526 61.844-2.131 8.209-2.348 9.974-1.224 9.965.412-.003 1.574-3.49 2.581-7.75 3.753-15.866 12.601-30.005 25.043-40.014 12.362-9.944 32.21-18.883 49.466-22.278 3.388-.667 6.16-1.604 6.16-2.082 0-1.065-2.241-.971-7.5.315M854 339.928c0 8.552-1.693 19.847-5.033 33.572-12.053 49.531-46.605 92.331-92.467 114.54-19.014 9.208-38.628 14.702-60.356 16.909-16.56 1.681-113.959 1.367-129.211-.418-62.364-7.295-115.78-47.156-140.388-104.764-4.484-10.498-9.046-24.795-10.186-31.926-.338-2.112-1.007-3.841-1.487-3.841-1.298 0-1.091 1.573 1.577 12 10.805 42.23 37.538 78.914 75.917 104.173 15.208 10.009 36.453 19.047 53.634 22.816 3.025.663 7.3 1.611 9.5 2.105 9.882 2.222 28.377 2.905 78.356 2.898 54.433-.009 63.722-.462 81.713-3.988 33.177-6.503 66.543-24.414 89.289-47.931 7.124-7.365 21.514-25.463 25.105-31.573 13.298-22.626 20.723-43.511 24.531-69 1.722-11.527 1.957-21.5.506-21.5-.554 0-1 2.643-1 5.928m1744 18.631c0 7.451.355 11.339 1 10.941.568-.351 1-5.344 1-11.559 0-6.627-.394-10.941-1-10.941-.609 0-1 4.52-1 11.559m-146.5-1.213c-3.892 1.696-18.684 5.645-40.208 10.735-25.02 5.917-36.554 11.983-43.467 22.865-1.554 2.445-2.825 5.509-2.825 6.809 0 3.114 1.676 1.999 2.477-1.649.869-3.959 6.911-10.748 12.969-14.572 8.696-5.49 18.157-8.639 42.054-13.994 8.336-1.869 16.306-3.997 26.5-7.078l7.5-2.267.275 17.127c.155 9.671.709 17.562 1.272 18.125.665.665.907-5.347.726-17.974-.261-18.127-.362-18.983-2.273-19.203-1.1-.127-3.35.358-5 1.076m-440.294 13.848c-1.668 1.668-1.523 3.314.168 1.911 1.009-.838 22.51-1.069 81-.873 52.758.178 79.514-.069 79.293-.732-.523-1.568-158.897-1.87-160.461-.306m585.45 11.556c-.916 13.827-.823 21.828.238 20.7 1.263-1.341 2.564-30.45 1.361-30.45-.524 0-1.244 4.387-1.599 9.75m-427.12-1.143c-.38 2.533-1.579 8-2.666 12.147-17.542 66.977-63.379 104.286-139.832 113.817-6.304.786-14.742 1.429-18.75 1.429-4.84 0-7.288.388-7.288 1.154 0 1.65 22.433.363 37.187-2.133 40.89-6.918 69.7-20.783 92.818-44.668 5.778-5.969 12.904-14.358 15.837-18.642 10.442-15.255 19-36.002 23.131-56.08 2.309-11.224 2.349-11.631 1.141-11.631-.488 0-1.198 2.073-1.578 4.607M274.013 383.05c.022 3.926 5.449 18.437 8.918 23.842 5.359 8.351 16.814 18.396 26.219 22.992 9.285 4.537 23.177 8.805 31.737 9.751 7.903.873 5.387-1.004-3.387-2.528-20.07-3.486-36.337-11.57-47.324-23.52-4.726-5.141-11.404-18.197-13.341-26.087-1.416-5.771-2.841-8.018-2.822-4.45m1735.654.617c-.367.366-.667 4.097-.667 8.29 0 24.045-16.12 45.375-36.079 47.739-2.739.324-5.261 1.045-5.606 1.603-.41.664 1.36.808 5.146.417 15.028-1.551 29.855-15.028 35.766-32.51 1.138-3.367 2.161-9.909 2.495-15.956.543-9.851.411-11.05-1.055-9.583M685.754 391c-.329.825-.898 3.3-1.265 5.5s-2.13 7.15-3.919 11c-8.014 17.252-24.515 27.5-44.28 27.5-4.193 0-7.29.425-7.29 1 0 1.3 11.185 1.292 18.063-.012 9.077-1.721 19.185-7.429 25.935-14.645 6.563-7.016 9.932-12.853 12.484-21.632 1.53-5.265 1.754-12.429.272-8.711m1236.258 6.691c.019 4.48 2.651 13.181 6.13 20.264 4.026 8.194 11.77 15.897 20.069 19.961 6.388 3.129 16.701 5.368 15.458 3.357-.355-.573-2.566-1.33-4.914-1.682-11.323-1.698-23.756-11.659-29.447-23.591-3.475-7.286-5.294-13.184-5.302-17.191-.003-1.48-.456-2.969-1.006-3.309-.577-.357-.995.571-.988 2.191m534.538-1.441c-.213.688-.887 5.43-1.497 10.538-1.4 11.718-4.212 19.298-8.818 23.772-6.379 6.195-21.599 12.4-30.485 12.428-2.129.007-3.75.504-3.75 1.15 0 .794 1.734.939 5.75.479 13.663-1.564 27.996-8.994 33.208-17.212 1.612-2.542 3.622-7.659 4.466-11.372 1.797-7.899 3.163-21.033 2.188-21.033-.371 0-.849.563-1.062 1.25m-254.913 4.528c-1.102 1.784-1.946 24.913-.931 25.54.622.384 1.236-4.267 1.654-12.508.637-12.6.503-15.016-.723-13.032m-2068.615 3.413c.031 4.828 3.41 19.291 6.286 26.913 2.962 7.849 9.126 18.248 14.913 25.159 12.197 14.569 35.213 28.091 58.279 34.238 16.062 4.281 19.945 4.463 95.595 4.482 69.071.016 72.675-.072 74.25-1.812 1.447-1.599 1.655-4.972 1.655-26.877 0-21.352-.228-25.238-1.542-26.329-1.169-.97-1.824-.999-2.7-.123-.877.877-.742 1.158.559 1.158 1.585 0 1.696 1.978 1.45 25.75l-.267 25.75H306c-81.612 0-79.571.117-98.5-5.648-32.288-9.833-56.285-30.008-66.545-55.947-2.498-6.316-5.902-21-5.933-25.596-.012-1.755-.472-3.469-1.022-3.809-.591-.365-.991.735-.978 2.691M2365 410.103c0 1.376 1.737 6.079 3.86 10.45 6.836 14.075 19.115 23.113 32.902 24.22 4.265.342 6.324.175 5.918-.482-.343-.555-3.395-1.259-6.783-1.567-15.019-1.362-27.653-12.59-32.881-29.224-1.602-5.097-3.016-6.689-3.016-3.397m228 35.397c0 6.333.397 10.5 1 10.5s1-4.167 1-10.5-.397-10.5-1-10.5-1 4.167-1 10.5m-391-5.562c0 6.775 6.256 24.747 11.525 33.11 14.171 22.492 42.066 38.849 76.475 44.845 40.025 6.974 92.037 2.228 132.938-12.132 10.009-3.514 14.544-5.578 27.374-12.461 1.547-.83 2.927-1.349 3.068-1.154 6.981 9.696 9.982 12.652 13.421 13.22 6.512 1.077 141.022.729 141.699-.366.41-.663-22.742-1.004-68.691-1.011-38.12-.006-70.884-.273-72.809-.594-2.845-.474-4.301-1.697-7.778-6.531-2.353-3.271-4.881-6.18-5.619-6.463s-5.563 1.719-10.722 4.45c-42.597 22.541-114.582 30.678-163.881 18.526-33.817-8.336-57.228-25.283-68.173-49.35-3.372-7.415-6.827-19.185-6.827-23.257 0-1.523-.45-2.77-1-2.77s-1 .872-1 1.938M360 441c0 .588 3.5 1 8.5 1s8.5-.412 8.5-1-3.5-1-8.5-1-8.5.412-8.5 1m2235.377 27.954c1.144 7.157 6.38 19.337 11.518 26.795 3.508 5.093 4.572 7.384 3.791 8.165s-.625 1.086.555 1.086c2.74 0 3.118-2.052.893-4.85-6.003-7.547-13.152-22.399-14.666-30.468-1.013-5.401-2.946-6.074-2.091-.728m-1031.229 29.578c.283 1.475 1.502 2.137 4.865 2.644 7.09 1.068 120.784.961 121.449-.114.357-.579-23.108-1.057-61.289-1.25-52.604-.265-62.132-.532-63.636-1.78-1.595-1.325-1.731-1.277-1.389.5M1940.5 511c.387.627 10.657 1 27.5 1s27.113-.373 27.5-1c.406-.658-9.009-1-27.5-1s-27.906.342-27.5 1M58.75 562.08c-2.611 1.521-2.549 15.887.079 18.265 1.699 1.538 91.847 1.655 1277.065 1.655 877.141 0 1275.841-.323 1277.172-1.035 1.673-.895 1.934-2.152 1.934-9.3 0-5.095-.46-8.725-1.2-9.465-1.587-1.587-2552.325-1.707-2555.05-.12m.46 9.17.29 8.25h2553l.29-8.25.291-8.25H58.919zM58.2 637.2c-.923.923-1.2 37.558-1.2 158.809 0 134.48.208 157.893 1.418 159.548.78 1.067 1.763 1.596 2.184 1.175.42-.421.232-1.298-.419-1.949C59.282 953.882 59 915.965 59 795.8V638h2554v317h-388.559c-258.785 0-388.353.334-387.941 1 .969 1.568 775.732 1.368 777.3-.2 1.745-1.745 1.745-316.855 0-318.6-1.751-1.751-2553.849-1.751-2555.6 0m2141.972 56.91c-38.248 4.443-65.938 33.635-73.633 77.631-1.78 10.171-2.2 46.259-.539 46.259.632 0 1.004-7.09 1.011-19.25.008-16.252.376-21.041 2.361-30.75 3.692-18.06 9.941-31.326 21.294-45.203 13.572-16.589 32.353-25.678 56.584-27.384 5.363-.378 9.75-1.075 9.75-1.55 0-1.026-6.71-.928-16.828.247m18.23.732c.394.637 2.602 1.165 4.907 1.173 8.098.03 27.743 5.947 33.941 10.224 2.433 1.679 2.75 1.709 2.75.266 0-2.073-10.616-6.967-20.907-9.638-9.604-2.493-21.712-3.678-20.691-2.025m-1107.411 1.991c-.545.184-.991.859-.99 1.5 0 .871 10.979 1.173 43.25 1.191 41.93.024 43.493.094 51.249 2.297 13.693 3.891 23.99 9.625 32.595 18.153 4.404 4.363 9.106 10.257 11.19 14.026 4.343 7.852 9.166 21.96 10.767 31.5 1.131 6.737 2.966 11.085 2.932 6.95-.035-4.347-4.063-20.72-6.922-28.133-8.879-23.025-25.407-37.567-50.562-44.486-7.47-2.054-10.8-2.238-50.259-2.766-23.243-.311-42.705-.415-43.25-.232m-869.53 1.417c-.262.688-.361 46.025-.219 100.75l.258 99.5h127v-41l-35.949-.263c-26.776-.196-36.139-.571-36.696-1.471-1.009-1.634-2.252-.243-1.51 1.691.519 1.351 5.071 1.543 36.624 1.543H367v38H243V698.905l26.001.298c20.293.232 26.001.023 26-.953-.001-.969-5.974-1.25-26.532-1.25-20.305 0-26.644.293-27.008 1.25m161.206-.583c-.961.96-.795 198.584.168 200.1.623.982 6.756 1.207 27.234 1l26.431-.267.275-98.5c.151-54.175.03-99.513-.269-100.75l-.544-2.25h-26.314c-14.473 0-26.615.3-26.981.667m86.794.583c-.262.688-.361 46.025-.219 100.75l.258 99.5h52l.259-52.75c.171-34.979-.081-52.75-.75-52.75-.666 0-1.009 17.696-1.009 52v52h-49.01l.255-98.75.255-98.75 27.756-.266 27.755-.266 2.566 5.766c2.543 5.714 12.841 30.719 22.968 55.766 2.935 7.26 5.893 13.129 6.698 13.293 2.731.555.937 4.463 29.056-63.293 2.282-5.5 4.611-10.331 5.175-10.735s13.289-.741 28.276-.75L669 699v198h-49.279l.483-57c.266-31.35.154-57-.249-57-1.207 0-2.103 40.032-1.768 79l.313 36.5h52l.255-100.765.255-100.765-29.755.265-29.755.265-15.105 36.305c-8.307 19.967-15.572 36.772-16.143 37.343-.718.718-1.668-.61-3.079-4.305-3.326-8.711-27.643-67.234-28.501-68.593-.602-.953-7.672-1.25-29.762-1.25-22.258 0-29.083.29-29.449 1.25M704 700.059c0 1.785.417 2.802 1 2.441.55-.34 1-1.266 1-2.059 0-1.216 3.9-1.441 25-1.441h25v198.065l-26.001-.283c-20.461-.222-26-.012-26 .984.001.997 5.694 1.21 26.751 1l26.75-.266.255-100.75.255-100.75H704zm79-1.809c0 .991 14.826 1.195 71.5.987l71.5-.263V736h-21.066c-12.609 0-21.842.416-23 1.035-2.047 1.096-2.616 4.425-.934 5.465.567.351 1-.49 1-1.941V738h22.393c19.497 0 22.472-.205 23-1.582.791-2.062.791-35.774 0-37.836-.546-1.422-7.865-1.582-72.5-1.582-56.848 0-71.893.262-71.893 1.25m169.245 99.5.255 100.75 65.27.257 65.271.257-.271-20.757-.27-20.757-38.25-.262-38.25-.262v-20.988c0-16.11.291-20.994 1.25-21.015.688-.014 15.313-.003 32.5.026 20.991.036 31.25-.288 31.25-.986 0-.704-10.739-.955-33.25-.776l-33.25.263-.27 21.373c-.189 14.923.074 21.789.872 22.75.933 1.124 8.002 1.377 38.52 1.377H1081v38H954V699h127v37h-37.3c-27.678 0-37.61.31-38.5 1.2-.843.843-1.2 6.454-1.2 18.845 0 15.909.182 17.81 1.853 19.322 1.626 1.472 4.542 1.661 23.75 1.545 12.043-.073 27.41-.083 34.147-.022l12.25.11v17.383c0 17.141-.031 17.394-2.25 18.127l-2.25.744 2.387.46c1.356.262 2.753-.116 3.235-.877.466-.735.854-9.269.863-18.965.012-13.797-.285-17.876-1.368-18.775-.982-.815-11.05-1.132-34.75-1.097-18.352.028-33.929.039-34.617.025-.953-.019-1.25-4.305-1.25-18.025v-18h37.8c22.479 0 38.185-.384 38.75-.948.556-.554.829-9.062.659-20.5l-.291-19.552H951.99zM1361 698.529c0 .841 2.287 9.728 5.082 19.75a7362 7362 0 0 1 9.441 34.221c4.517 16.576 6.884 25.151 20.423 74a83843 83843 0 0 1 13.703 49.5c3.115 11.275 6.099 21.063 6.63 21.75.729.943 7.328 1.25 26.865 1.25h25.899l.957-2.25c.526-1.237 3.179-10.125 5.894-19.75s8.318-29.2 12.45-43.5c7.907-27.372 22.423-77.693 32.596-113 3.328-11.55 6.053-21.562 6.055-22.25.004-.971-6.439-1.25-28.895-1.25h-28.901l-1.106 4.75c-1.389 5.963-18.019 90.422-21.118 107.25-2.036 11.056-3.517 15.791-4.601 14.708-.187-.188-1.668-7.511-3.29-16.274s-5.438-28.984-8.478-44.934-6.89-36.2-8.556-45-3.267-17.013-3.558-18.25l-.53-2.25h-28.481c-24.889 0-28.481.193-28.481 1.529m185.461-.279c-.262.688-.361 46.025-.219 100.75l.258 99.5 26.75.266c17.628.176 26.75-.08 26.75-.75 0-.662-9.055-1.016-26-1.016h-26V699h51.5l-.26 97.5c-.173 65.134.076 97.5.75 97.5 1.1 0 1.497-192.567.403-195.418-.532-1.387-3.858-1.582-27.031-1.582-20.219 0-26.537.294-26.901 1.25m86.146.332c-1.087 2.834-.699 192.593.393 191.918.655-.405 1-33.516 1-96.076v-95.457l26.172.266 26.172.267 2.895 7c21.302 51.495 31.119 76.448 36.393 92.5 3.855 11.732 5.373 14.071 7.818 12.042 1.247-1.035 1.55-3.698 1.55-13.605 0-7.134-.421-12.579-1-12.937-.647-.4-1 3.99-1 12.441 0 7.643-.397 13.059-.956 13.059-.527 0-2.059-3.487-3.406-7.75-5.012-15.861-35.984-94.554-40.635-103.244-1.033-1.931-2.072-2.006-27.931-2.006-23.569 0-26.932.194-27.465 1.582m100.006-.017c-1.086 2.832-.71 83.613.387 82.935.64-.396 1-15.344 1-41.559V699h48v198h-51.697l-5.767-14.25c-3.173-7.837-7.489-18.525-9.592-23.75s-7.454-18.5-11.89-29.5-9.702-24.95-11.701-31-4.497-11.9-5.551-13c-1.895-1.977-1.934-1.977-3.36-.059-1.663 2.238-2.011 14.089-.442 15.059.631.39 1-1.99 1-6.441 0-9.101 2.103-9.713 4.494-1.309 3.628 12.75 38.967 101.688 41.727 105.016.81.976 7.149 1.205 27.665 1l26.614-.266v-201l-25.137-.267c-22.268-.236-25.206-.084-25.75 1.332m74.835-.291c-.271.708-.371 9.824-.221 20.257l.273 18.969 19.822.271c13.303.183 19.615-.064 19.191-.75-.393-.635-7.599-1.021-19.072-1.021H1809v-37h142v37h-20c-12.932 0-20 .361-20 1.02 0 .67 7.132.928 20.75.75l20.75-.27v-40l-72.279-.257c-58.205-.206-72.375-.005-72.773 1.031m192.795-.024c-.551.688-1.764 3.95-2.697 7.25-.932 3.3-5.904 20.175-11.048 37.5a42703 42703 0 0 0-15.996 54c-10.211 34.587-22.436 75.834-24.452 82.5-.998 3.3-2.543 8.414-3.433 11.365-.889 2.95-1.617 5.988-1.617 6.75 0 1.889 52.917 2.068 54.8.185 1.453-1.453 1.635-7.187.2-6.3-.55.34-1 1.716-1 3.059V897h-26c-14.3 0-26-.283-26-.628s1.839-6.533 4.087-13.75a1954 1954 0 0 0 7.897-26.122c8.393-28.635 13.206-44.93 19.054-64.5 7.191-24.068 8.529-28.607 17.981-61 3.932-13.475 7.692-26.075 8.356-28l1.207-3.5 25.666-.267 25.666-.267 1.016 3.767c.968 3.59 3.095 10.762 12.239 41.267 5.814 19.394 13.14 43.974 18.777 63 2.688 9.075 9.003 30.225 14.032 47s9.973 33.313 10.986 36.75l1.842 6.25h-54.646l-1.507-6.75c-.829-3.712-2.278-10.8-3.22-15.75-1.56-8.198-3.433-13.292-3.433-9.338 0 1.854 4.561 24.492 6.043 29.999l1.034 3.839h28.962c15.928 0 28.961-.306 28.961-.679 0-.735-28.881-97.935-32.037-107.821-1.053-3.3-4.443-14.55-7.532-25l-12.54-42.417c-3.808-12.879-7.421-24.016-8.029-24.75-1.558-1.877-52.118-1.955-53.619-.083m299.364.332c-.793 2.067-.793 196.769 0 198.836.545 1.42 7.249 1.582 65.5 1.582 42.595 0 64.893-.344 64.893-1s-22.25-1-64.75-1h-64.75l.26-99 .259-99h16.932c10.208 0 17.176-.397 17.549-1 .403-.652-5.621-1-17.334-1-15.447 0-18.037.221-18.559 1.582M404 798v99h51V699h-51zm959-98.407c0 .601 5.915 22.395 13.002 47.907 18.826 67.766 25.022 90.142 32.441 117.153 4.706 17.134 8.557 31.429 8.557 31.767 0 .337 11.564.494 25.697.347l25.697-.267 7.715-27c12.674-44.355 45.176-156.961 47.335-164 .844-2.75 1.539-5.345 1.545-5.766s-12.235-.646-27.202-.5l-27.213.266-.762 3c-.692 2.727-13.098 66.092-17.915 91.5-1.094 5.775-2.603 13.2-3.352 16.5s-1.661 7.872-2.026 10.161c-.668 4.184-3.599 8.025-5.315 6.965-.507-.313-1.225-3.146-1.595-6.294s-1.307-8.898-2.082-12.778-2.56-13.129-3.966-20.554c-3.58-18.907-6.023-31.695-10.029-52.5-1.906-9.9-4.213-22.163-5.126-27.25l-1.66-9.25h-26.873c-14.78 0-26.873.267-26.873.593m-253 101.92v97.631l39.25-.416c32.711-.346 40.5-.705 46.75-2.156 25.288-5.871 43.994-20.662 55.736-44.072 3.2-6.38 8.264-20.666 8.264-23.314 0-2.957-1.751.217-3.483 6.314-5.945 20.932-20.638 40.877-36.752 49.889-17.984 10.057-27.746 11.611-72.941 11.611H1112v-95.941c0-62.882-.345-96.154-1-96.559-.664-.41-1 32.18-1 97.013M704 778.5c0 47.491.337 71.41 1 71 .651-.403 1-25.157 1-71s-.349-70.597-1-71c-.663-.41-1 23.509-1 71m1555-50.594v18.906l-10.5-5.335c-12.347-6.274-19.142-7.921-29.695-7.2-8.195.561-16.264 3.547-22.565 8.354-4.394 3.351-11.723 14.467-14.217 21.564-2.583 7.349-5.165 22.078-4.883 27.858.122 2.504-.101 5.075-.495 5.713-1.15 1.861 1.306 27.003 3.481 35.627 4.698 18.637 14.13 29.595 25.478 29.603 4.059.003 5.655-.507 7.797-2.492 4.143-3.84 8.413-14.504 5.806-14.504-.436 0-1.362 2.138-2.059 4.75-1.898 7.119-5.376 10.25-11.385 10.25-2.674 0-6.123-.652-7.664-1.449-3.758-1.943-8.555-7.544-11.588-13.529-10.61-20.938-10.511-68.552.183-88.201 7.942-14.591 19.629-21.821 35.277-21.821 10.882 0 22.428 3.955 33.348 11.422 2.1 1.436 4.238 2.352 4.75 2.036 1.295-.801 1.227-40.458-.069-40.458-.631 0-1 6.969-1 18.906M782.999 736.73c.001.928 5.348 1.297 21.751 1.5l21.75.27.5 80 .5 80 26.75.266c17.628.176 26.75-.08 26.75-.75 0-.662-9.055-1.016-26-1.016h-26v-78.845c0-74.405-.101-78.936-1.785-80.46-1.501-1.359-5.15-1.661-23.001-1.905-16.284-.223-21.216-.004-21.215.94m380.201-.53c-1.733 1.733-1.733 121.867 0 123.6 1.451 1.451 8.434 1.601 9.3.2.378-.611-1.156-1-3.941-1H1164V737h6.818c9.638 0 16.046 2.173 21.882 7.42 6.17 5.547 11.034 15.255 13.192 26.327.885 4.535 1.946 8.248 2.358 8.25 2.583.011-2.821-19.929-7.551-27.862-6.254-10.488-16.57-16.135-29.474-16.135-3.975 0-7.326.501-8.025 1.2m1228.888-.45c-25.566.188-37.836.626-38.75 1.385-1.549 1.285-1.824 6.865-.338 6.865.55 0 1-1.35 1-3v-3h38c33.111 0 38-.193 38-1.5 0-.825-.113-1.393-.25-1.263s-17.086.362-37.662.513m-543.518 1.136c-.301.488.345 1.12 1.435 1.405 1.954.511 1.987 1.701 2.239 80.364l.256 79.845h53l.256-79.405c.183-56.641.576-79.79 1.373-80.75 1.383-1.667-.282-1.792-1.929-.145-.913.913-1.2 20.044-1.2 80V897h-50v-79.465c0-77.541-.047-79.49-1.934-80.5-2.36-1.263-2.796-1.282-3.496-.149m175.523 18.369c-.835 2.196-5.093 22.165-5.093 23.884 0 .474.373.861.83.861s1.589-3.937 2.516-8.75c2.27-11.774 3.27-15.126 3.955-13.25 1.367 3.747 2.679 9.2 4.271 17.75.947 5.087 2.126 9.25 2.62 9.25s.6-1.687.235-3.75c-1.727-9.757-5.289-26.218-5.882-27.178-1.073-1.736-2.532-1.236-3.452 1.183m-1485.111 9.267c-1.506 1.815-.508 23.335 1.158 24.978.686.676.781-3.176.294-11.881-.579-10.369-.466-12.796.581-12.447.715.238 3.901 8.059 7.08 17.381 7.108 20.842 30.335 79.757 31.612 80.183.512.17 1.435-.713 2.052-1.963 3.319-6.73 29.557-74.864 32.356-84.023 4.098-13.408 5.885-14.183 5.885-2.55 0 10.138 1.661 9.304 2.151-1.08.292-6.18.064-7.561-1.401-8.495-3.086-1.966-5.055.55-7.805 9.97-4.538 15.55-31.304 82.905-32.945 82.905-1.534 0-25.346-60.223-32.026-81-4.028-12.526-6.17-15.379-8.992-11.978m1813.208 7.228c.307 3.714.356 3.753 5.06 4.055 2.857.183 4.75-.116 4.75-.75 0-.58-1.8-1.055-4-1.055-3.778 0-4-.167-4-3 0-1.65-.477-3-1.06-3-.614 0-.93 1.579-.75 3.75M2381 775c2.036 1.316 19.313 1.316 18.5 0-.344-.557-4.909-.993-10.309-.985-6.626.011-9.217.322-8.191.985m41.809 18.626.31 19.374H2397.5c-16.824 0-25.406.343-25 1 .671 1.085 48.159 1.452 50.918.393 1.367-.524 1.582-3.229 1.582-19.893 0-14.506-.31-19.405-1.25-19.767-.98-.377-1.183 3.704-.941 18.893M1208 794.5c0 9.491.351 14.401 1 14 .586-.362 1-6.157 1-14s-.414-13.638-1-14c-.649-.401-1 4.509-1 14m809.505-9.25c-1.465 7.282-5.685 27.509-6.505 31.179-1.637 7.323-.927 7.665 15.218 7.348 8.269-.162 14.256-.691 14.452-1.277.215-.644-4.525-.891-13.312-.694-7.505.168-13.987-.057-14.404-.5s.696-8.006 2.475-16.806c1.778-8.8 3.523-17.462 3.877-19.25s.241-3.25-.252-3.25c-.492 0-1.189 1.462-1.549 3.25m15.47 1.3c-.034 1.332 6.29 32.857 6.694 33.367.182.229.587.16.9-.153.755-.754-5.521-31.994-6.672-33.214-.567-.6-.906-.6-.922 0m168.637 5.018c-.869 2.266-.732 32.698.153 34.073.935 1.451 18.377 2.288 17.905.859-.182-.55-4.007-1.131-8.5-1.29l-8.17-.291V792h64v105h-23.569l-4.812-5.724c-7.645-9.092-8.044-9.232-12.959-4.565-9.729 9.238-19.364 13.289-31.609 13.289-33.059 0-58.254-27.732-65.097-71.651-1.179-7.571-2.954-12.127-2.954-7.584 0 4.24 3.853 21.943 6.477 29.76 8.586 25.579 25.901 43.744 47.288 49.611 11.359 3.117 23.798 2.338 32.704-2.046 3.563-1.754 9.018-5.51 12.121-8.347l5.643-5.157 3.133 3.524a677 677 0 0 1 6.299 7.207l3.164 3.683h26.188l-.258-54.25-.259-54.25-33.138-.263c-29.566-.235-33.204-.092-33.75 1.331M1682 851.5V897h-24.5c-18 0-24.5-.31-24.5-1.167 0-.641-.236-.931-.524-.643-.287.288-.236 1.271.114 2.184.574 1.496 3.124 1.633 25.773 1.393l25.137-.267.26-46.25c.172-30.643-.081-46.25-.75-46.25-.665 0-1.01 15.533-1.01 45.5m-474.184-39.951c-.303.523-1.116 4.101-1.808 7.951-.691 3.85-2.583 10.487-4.204 14.748-4.62 12.143-14.275 21.296-24.653 23.372-1.733.346-3.151 1.074-3.151 1.616 0 1.585 7.006-.136 12.348-3.032 8.438-4.575 15.052-13.397 19.122-25.506 2.688-7.997 4.512-22.89 2.346-19.149M2352.19 854.75l.31 3.75 38.816.262c25.99.175 38.61-.073 38.191-.75-.403-.653-13.893-1.012-38.066-1.012H2354v-3c0-1.65-.477-3-1.06-3-.614 0-.93 1.579-.75 3.75m-348.42 3.5c-1.018.789-2.749 6.527-4.692 15.547-3.366 15.633-3.446 16.203-2.283 16.203.437 0 1.598-3.937 2.579-8.75.982-4.812 2.46-11.788 3.285-15.5l1.501-6.75h21.514c20.672 0 21.534.078 22.036 2 .638 2.441 2.57 2.693 2.104.275-.689-3.579-4.575-4.245-24.873-4.26-14.14-.011-20.006.331-21.171 1.235M76.479 956.966c.842 1.362 154.17 1.411 155.012.049.422-.683-24.883-1.015-77.491-1.015-49.999 0-77.903.348-77.521.966M237.5 957c.364.589 6.324 1 14.5 1s14.136-.411 14.5-1c.402-.65-4.676-1-14.5-1s-14.902.35-14.5 1m46.001.002c.821 1.328 54.2 1.291 55.022-.039.376-.609-9.746-.963-27.523-.963-18.53 0-27.907.342-27.499 1.002M357.5 957c.37.599 6.991 1 16.5 1s16.13-.401 16.5-1c.403-.652-5.343-1-16.5-1s-16.903.348-16.5 1m34.99-.017c.842 1.363 230.171 1.375 231.013.012.407-.658-38.711-.995-115.503-.995-75.853 0-115.907.341-115.51.983m234.952-.077c.82 1.326 101.214 1.46 102.032.136.443-.718-15.432-1.042-50.974-1.042-30.58 0-51.39.369-51.058.906m104.035.058c.818 1.323 155.22 1.335 156.038.011.39-.63-27.179-.975-78.015-.975-50.177 0-78.403.349-78.023.964m158.057.091c.8 1.294 48.466 1.104 48.466-.193 0-.474-11.052-.862-24.559-.862-16.971 0-24.358.326-23.907 1.055m50.939-.099c.807 1.306 381.245 1.309 382.052.003.378-.611-69.011-.959-191.025-.959-121.573 0-191.402.349-191.027.956M1355.5 957c.369.597 6.824 1 16 1s15.631-.403 16-1c.403-.651-5.176-1-16-1s-16.403.349-16 1m45.967-.054c.825 1.336 419.208 1.389 420.033.054.411-.665-69.856-1-210-1-132.14 0-210.4.352-210.033.946"/><path fill="#0c0506" fill-rule="evenodd" d="M220.572 58.25c-4.171 14.274-7.384 23.077-11.406 31.252-18.504 37.607-52.212 62.282-99.745 73.012-6.556 1.48-14.957 2.758-18.667 2.839s-6.748.551-6.75 1.045c-.002.507-3.927.644-9.024.314-6.004-.389-8.809-.245-8.39.433.352.57-.189.931-1.231.821-1.022-.108-2.879-.144-4.125-.081l-2.265.115.265 28.25.266 28.25 37 .5 37 .5.184 87.5c.101 48.125.384 88.175.63 89s.984 5.1 1.64 9.5c2.795 18.739 10.565 34.182 23.956 47.62 13.368 13.413 27.376 21.576 47.59 27.732 18.929 5.765 16.888 5.648 98.5 5.648h75.5l.267-25.629.266-25.629-2.266-.596c-1.247-.327-2.417-.156-2.6.38-.397 1.159-17.167 1.332-17.167.177 0-.439-2.925-.612-6.5-.384s-6.504.024-6.508-.453c-.005-.476-2.592-.941-5.75-1.033-7.573-.219-21.726-4.384-32.061-9.433-9.654-4.717-20.453-14.233-26.209-23.094-4.166-6.412-9.512-21.632-8.696-24.754.295-1.129.129-2.052-.37-2.052-1.23 0-1.173-149.03.059-150.977.783-1.239 3.979-1.423 19.735-1.138 39.466.715 78.3.583 78.3-.266 0-.484 1.478-.641 3.286-.348 1.807.294 4.507.3 6 .015l2.714-.519v-57.75l-55.25-.259-55.25-.258-.258-55.75-.259-55.75H246.96c-19.957 0-26.108.291-26.388 1.25m1400.428 8c0 .412-1.053.75-2.34.75-4.83 0-18.445 4.183-26.345 8.094-14.054 6.958-26.315 20.55-26.315 29.17 0 1.505-.45 2.736-1 2.736s-1 1.575-1 3.5.45 3.5 1 3.5 1 1.037 1 2.304c0 7.492 12.611 21.947 24.292 27.843 10.456 5.279 26.136 9.853 33.773 9.853 1.614 0 2.935.338 2.935.75s3.825.75 8.5.75 8.5-.275 8.5-.61c0-.336 2.397-.858 5.327-1.16 9.362-.966 18.914-3.784 28.645-8.45 23.767-11.394 33.546-31.281 24.096-49.003-1.825-3.423-5.624-8.402-8.443-11.065-9.042-8.542-25.391-16.164-38.067-17.748-3.057-.382-5.558-.98-5.558-1.329s-6.525-.635-14.5-.635-14.5.338-14.5.75M571.749 157.173c-.137.369-3.849.819-8.249 1-4.4.18-8.225.572-8.5.871s-5.225 1.702-11 3.117C483.115 177.074 432.989 227.08 417.859 288c-1.297 5.225-2.584 9.725-2.859 10s-.639 3.415-.809 6.977-.62 6.713-1 7c-.93.704-.889 38.375.043 39.072.404.302.854 3.336 1 6.742s.546 6.196.888 6.201.899 1.737 1.237 3.849c1.14 7.131 5.702 21.428 10.186 31.926 24.608 57.608 78.024 97.469 140.388 104.764 15.252 1.785 112.651 2.099 129.211.418 81.913-8.317 145.817-69.968 156.799-151.271.582-4.303 1.057-10.49 1.057-13.75 0-3.285.446-5.928 1-5.928 1.232 0 1.338-3.705.12-4.167-.484-.183-1.046-5.733-1.25-12.333s-.608-12.225-.899-12.5-1.343-4.493-2.337-9.374c-13.536-66.43-66.839-120.463-132.884-134.704-3.163-.682-5.75-1.506-5.75-1.831s-1.913-.707-4.25-.848c-11.207-.677-135.783-1.658-136.001-1.07m1342.251.878c-33.947 3.086-66.584 14.056-91.601 30.79-38.36 25.658-60.551 61.92-67.869 110.902-2.041 13.666-2.073 54.131-.055 71.379 5.086 43.476 18.277 74.969 40.692 97.151 8.368 8.28 19.792 16.605 29.787 21.704 20.088 10.248 51.826 17.326 83.796 18.687 8.388.357 15.25.933 15.25 1.28s17.324.614 38.498.593c21.174-.02 38.499-.374 38.5-.787s3.282-.75 7.29-.75c16.095 0 44.062-4.79 61.31-10.5 51.371-17.007 83.296-51.384 97.272-104.746 1.087-4.147 2.286-9.614 2.666-12.147.38-2.534 1.09-4.607 1.578-4.607 1.548 0 .953-3.76-.696-4.393-.87-.334-36.843-.607-79.941-.607-61.589 0-78.532.268-79.168 1.25-.445.688-.837 7.775-.871 15.75-.051 11.953-.42 15.502-2.101 20.206-4.692 13.127-13.948 24.001-25.087 29.471-5.253 2.579-6.703 2.823-16.771 2.823-10.469 0-11.361-.167-17.79-3.332-3.722-1.833-9.158-5.665-12.079-8.518-8.461-8.26-15.74-25.815-14.171-34.177.406-2.165.258-3.473-.394-3.473-.714 0-1.045-17.563-1.045-55.5 0-35.612.351-55.5.981-55.5.584 0 .737-1.782.377-4.404-1.292-9.43 4.598-24.194 13.481-33.788 3.787-4.092 7.611-6.91 12.964-9.555 7.107-3.513 8.172-3.751 16.645-3.726 4.979.015 10.959.594 13.289 1.285 10.896 3.235 23.738 15.893 28.268 27.864 1.683 4.448 4.034 14.435 4.96 21.074.019.137 34.946.25 77.614.25h77.58l-.687-3.25c-.973-4.604-8.635-23.129-12.512-30.25-27.046-49.686-75.093-80.574-136.96-88.048-12.64-1.527-87.407-1.818-103-.401m-794 1.009c0 .426-2.347 1.278-5.215 1.893-16.203 3.475-40.514 16.4-60.057 31.93-4.141 3.291-7.799 5.713-8.128 5.383-.33-.33-.6-7.531-.6-16.004 0-11.029-.355-15.74-1.25-16.583-.946-.893-19.111-1.057-74.75-.679l-73.5.5v335l73.937.256c58.488.203 74.104-.006 74.735-1 .438-.691.804-53.748.813-117.904l.015-116.649 4.661-9.351c3.679-7.381 6.261-10.945 12.25-16.912 10.856-10.814 14.674-12.443 29.089-12.413 9.596.02 12.444.401 17.202 2.302 10.352 4.137 19.604 14.503 23.938 26.823 2.034 5.783 2.055 7.141 1.912 122.123-.126 101.513.043 116.463 1.337 117.757 1.286 1.286 10.955 1.447 73.296 1.225l71.815-.257.5-115.5c.558-128.787-.01-118.859 7.462-130.484 9.221-14.345 23.092-21.14 41.425-20.294 12.16.562 18.846 3.355 26.009 10.864 7.953 8.338 15.103 23.799 13.661 29.541-.334 1.335-.149 2.373.424 2.373.686 0 1.019 36.925 1.019 113v113h62.353c34.295 0 65.116.289 68.492.642l6.139.641.258-121.141c.142-66.628.023-121.142-.264-121.142s-1.057-2.82-1.711-6.268c-2.916-15.37-13.995-35.711-28.097-51.584-20.478-23.049-51.718-38.154-82.42-39.853-5.912-.327-10.75-.977-10.75-1.445 0-1.135-6.344-1.093-7.55.05-.523.496-5.9 1.058-11.95 1.25-6.05.193-11.261.703-11.581 1.135-.319.432-2.678.882-5.243 1-2.564.118-4.665.553-4.669.965s-.656.75-1.45.75c-3.382 0-20.861 6.617-30.607 11.587-5.803 2.959-14.353 8.148-19 11.533-10.064 7.328-24.185 21.316-28.901 28.63-1.862 2.887-3.93 5.25-4.596 5.25s-3.117-2.472-5.447-5.492c-5.887-7.631-21.766-22.61-31.958-30.146-14.641-10.826-33.858-19.929-51.927-24.597-7.489-1.935-11.411-2.244-29.871-2.353-11.687-.07-21.25.222-21.25.648m445.2 11.14c-.923.923-1.2 38.684-1.2 163.878 0 150.062.128 162.784 1.653 164.05 1.349 1.12 13.522 1.464 66.25 1.872 35.528.275 64.747.162 64.93-.25s2.317-.75 4.741-.75h4.408l.259-164.25c.171-108.644-.08-164.499-.741-164.985-.55-.404-32.072-.741-70.05-.75-52.39-.011-69.34.275-70.25 1.185m788.8-.295c0 .737-15.868 3.319-21.5 3.499-1.65.053-3.225.366-3.5.696s-4.775 1.818-10 3.307c-20.916 5.96-44.108 17.122-58.735 28.268-9.349 7.125-20.479 18.996-27.134 28.943-9.308 13.911-19.421 37.016-20.302 46.382l-.329 3.5 76 .275c41.8.152 76.953.046 78.118-.236 1.656-.399 2.228-1.48 2.618-4.945 1.649-14.623 15.969-29.985 34.332-36.828 4.83-1.8 8.069-2.216 17.432-2.238 14.055-.034 19.182 1.64 26.645 8.697 6.333 5.99 9.347 12.63 10.07 22.184.45 5.95.169 7.99-1.696 12.324-4.917 11.432-17.348 19.137-39.944 24.758-11.805 2.936-30.557 5.878-33.151 5.199-1.058-.276-1.924-.05-1.924.504 0 .58-1.909.856-4.5.649-2.475-.196-4.5.027-4.5.496 0 .47-2.25.698-5.001.508-2.75-.191-5 .034-5 .5.001.465-2.249.69-5 .5-2.75-.191-5-.107-5 .186.001.293-5.262 1.092-11.695 1.775s-18.226 2.384-26.208 3.779-15.296 2.332-16.256 2.081c-.959-.25-1.888-.023-2.065.506-.176.528-2.447 1.043-5.047 1.144-2.601.1-4.728.461-4.728.802s-2.772 1.165-6.16 1.832c-17.256 3.395-37.104 12.334-49.466 22.278-12.319 9.911-21.093 23.855-25.022 39.77-1.019 4.125-2.142 7.634-2.496 7.798s-.454 1.064-.223 2 .066 7.44-.368 14.452c-.435 7.04-.404 12.75.07 12.75.472 0 .702 2.25.512 5.001-.191 2.75-.009 5 .403 5 .412-.001.75 1.246.75 2.769 0 4.072 3.455 15.842 6.827 23.257 10.945 24.067 34.356 41.014 68.173 49.35 49.299 12.152 121.284 4.015 163.881-18.526 5.159-2.731 9.984-4.733 10.722-4.45s3.266 3.192 5.619 6.465c3.532 4.912 4.905 6.051 7.872 6.529 4.567.735 142.708.845 143.891.114.484-.299-1.335-3.76-4.043-7.691-5.735-8.325-11.138-21.484-11.317-27.562-.069-2.334-.52-4.247-1.003-4.25s-.59-1.806-.238-4.006c.392-2.453.248-4-.372-4-.618 0-1.012-4.085-1.012-10.5 0-5.975.41-10.5.951-10.5.575 0 .714-3.37.352-8.5-.339-4.806-.21-8.499.298-8.498.495.001.747-2.699.56-6s.039-6.005.5-6.009c.462-.003.935-7.311 1.053-16.238s.567-16.348 1-16.492c.432-.144.628-6.112.436-13.263-.193-7.15.032-13 .5-13 .989-.001.807-49.645-.191-52.247-.369-.962-.508-5.348-.308-9.748s.067-8.114-.295-8.253-.815-3.402-1.007-7.252-.574-7.225-.849-7.5-1.618-3.867-2.985-7.982c-2.781-8.371-9.684-20.456-15.981-27.978-17.846-21.315-54.444-40.303-95.373-49.483-12.226-2.742-29.326-5.541-33.911-5.551-1.512-.003-2.75-.386-2.75-.852s-20.475-.876-45.5-.914-45.5.261-45.5.665M623.5 225.389c-11.77 2.869-24.62 12.63-31.232 23.725-1.777 2.983-4.14 8.974-5.25 13.314-1.914 7.487-2.017 10.953-2.001 67.482.019 64.298.232 67.397 5.355 78.016 3.898 8.081 10.239 15.649 16.762 20.004 6.95 4.642 16.398 8.393 19.597 7.781 1.248-.238 2.269-.046 2.269.428 0 1.181 11.546 1.085 18.063-.151 2.935-.557 8.619-2.634 12.631-4.616 15.812-7.813 28.812-28.146 26.757-41.85-.459-3.061-.318-4.522.435-4.522.805 0 1.114-15.129 1.114-54.5 0-38.602-.317-54.5-1.088-54.5-.716 0-.855-1.376-.407-4.029 1.576-9.328-4.413-23.086-14.396-33.069-7.16-7.16-13.801-11.066-22.802-13.41-6.772-1.764-18.796-1.812-25.807-.103m1828 131.957c-3.892 1.696-18.684 5.645-40.208 10.735-19.009 4.495-30.245 9.171-37.255 15.505-5.375 4.855-9.405 11.709-8.787 14.942.26 1.359.085 2.472-.389 2.472-.473 0-.861.9-.861 2s.455 2 1.012 2c.604 0 .781 1.511.44 3.75-.463 3.041.17 5.262 3.348 11.75 4.657 9.505 12.252 17.229 20.947 21.304 5.378 2.52 6.633 2.693 19.253 2.653 11.323-.037 14.579-.41 20.19-2.312 9.46-3.207 18.22-9.146 21.786-14.768 3.564-5.62 6.348-17.288 6.45-27.028.04-3.933.422-6.938.846-6.677.425.26.65-7.997.5-18.349-.26-17.977-.362-18.833-2.272-19.053-1.1-.127-3.35.358-5 1.076M59.21 571.25l.29 8.25h2553l.29-8.25.291-8.25H58.919zm-.178 224.5c.024 122.477.304 158.085 1.25 159.25 1.081 1.331 101.054 1.5 888.873 1.5 488.209 0 887.445-.337 887.19-.75s174.389-.75 388.096-.75H2613V638H59zm2141.14-101.64c-38.248 4.443-65.938 33.635-73.633 77.631-1.701 9.72-2.2 46.259-.633 46.259.499 0 .686.844.416 1.875-.659 2.522 2.202 17.723 5.229 27.779 8.081 26.845 26.046 46.401 48.214 52.482 11.359 3.117 23.798 2.338 32.704-2.046 3.563-1.754 9.018-5.51 12.121-8.347l5.643-5.157 3.133 3.524a677 677 0 0 1 6.299 7.207l3.164 3.683h26.188l-.258-54.25-.259-54.25-32.932-.264c-25.682-.206-33.109.014-33.735 1-.93 1.465-1.131 31.825-.226 34.182.477 1.243 2.174 1.582 7.918 1.582 10.751 0 10.475-.267 10.475 10.107 0 4.891-.357 8.893-.793 8.893s-1.362 2.138-2.059 4.75c-1.898 7.119-5.376 10.25-11.385 10.25-5.848 0-9.413-1.698-13.616-6.486-7.598-8.653-11.522-21.284-13.209-42.514-.633-7.975-1.398-14.907-1.699-15.405s-.095-.624.458-.282c.631.39 1.235-2.81 1.621-8.596 1.792-26.854 12.793-44.812 30.71-50.133 13.594-4.037 30.31-.406 45.291 9.838 2.1 1.436 4.238 2.352 4.75 2.036 1.156-.715 1.256-40.458.102-40.458-.457 0-.794-.998-.75-2.217.065-1.835-1.248-2.79-7.6-5.529-9.151-3.946-24.643-7.528-30.571-7.069-2.338.181-4.25-.011-4.25-.428 0-.929-7.059-.781-16.828.353m-1089.136 2.708c-.585.197-.971 38.823-1.012 101.322l-.067 101.004 39.271-.416c32.731-.346 40.521-.705 46.772-2.156 25.286-5.87 43.963-20.637 55.742-44.072 3.881-7.721 8.633-22.081 7.921-23.935-.303-.79-.039-1.606.585-1.814.654-.218 1.137-2.582 1.137-5.565 0-2.852.428-5.186.952-5.186.568 0 .723-3.025.384-7.512-.34-4.492-.197-7.282.355-6.941.53.327.924-2.254.924-6.047s-.394-6.374-.924-6.047c-.552.341-.695-2.449-.355-6.941.373-4.944.208-7.512-.483-7.512-.578 0-.84-.805-.583-1.788.734-2.807-3.226-20.164-6.59-28.887-8.883-23.034-25.407-37.574-50.565-44.494-7.47-2.054-10.8-2.238-50.259-2.766-23.243-.311-42.685-.422-43.205-.247m-869.575 1.432c-.262.688-.361 46.025-.219 100.75l.258 99.5h127v-41l-35.834-.263c-29.595-.217-36.085-.513-37.274-1.702-1.233-1.233-1.4-12.711-1.166-79.987L294.5 697h-26.281c-20.105 0-26.394.294-26.758 1.25m161.206-.583c-.961.96-.795 198.584.168 200.1.623.982 6.756 1.207 27.234 1l26.431-.267.275-98.5c.151-54.175.03-99.513-.269-100.75l-.544-2.25h-26.314c-14.473 0-26.615.3-26.981.667m86.794.583c-.262.688-.361 46.025-.219 100.75l.258 99.5h52l.259-52.75c.142-29.013-.083-52.752-.5-52.754-.418-.002-.879-6.342-1.025-14.089-.197-10.432.038-13.983.908-13.693.645.215 3.774 8.017 6.953 17.339 7.108 20.842 30.335 79.757 31.612 80.183.512.17 1.435-.713 2.052-1.963 3.319-6.73 29.557-74.864 32.356-84.023 1.845-6.037 3.823-10.75 4.512-10.75 1.498 0 2.394 16.833.922 17.32-.587.194-.971 22.345-1 57.747L618.5 898.5h52l.255-100.765.255-100.765-29.755.265-29.755.265-15.105 36.305c-8.307 19.967-15.572 36.772-16.143 37.343-.718.718-1.668-.61-3.079-4.305-3.326-8.711-27.643-67.234-28.501-68.593-.602-.953-7.672-1.25-29.762-1.25-22.258 0-29.083.29-29.449 1.25m214.71 99.766.329 101.015 26.5-.265 26.5-.266.255-100.75.255-100.75h-54.168zm79.329-80.535v20.481l21.5.269 21.5.269.5 80 .5 80 26.5.266 26.5.266-.268-78.586c-.181-53.124.062-78.382.75-77.957.589.364 1.018-.449 1.018-1.93V738h22.393c19.497 0 22.472-.205 23-1.582.791-2.062.791-35.774 0-37.836-.546-1.422-7.843-1.582-72.25-1.582H783.5zm168.745 80.269.255 100.75 65.27.257 65.271.257-.271-20.757-.27-20.757-38.25-.262-38.25-.262v-20.988c0-16.11.291-20.994 1.25-21.015.688-.014 15.313-.003 32.5.026 17.561.03 31.25-.336 31.25-.834 0-.488 1.173-.663 2.606-.389 1.6.305 2.946-.038 3.485-.889.483-.763.885-9.319.894-19.015.012-13.797-.285-17.876-1.368-18.775-.982-.815-11.05-1.132-34.75-1.097-18.352.028-33.929.039-34.617.025-.953-.019-1.25-4.305-1.25-18.025v-18h37.8c22.479 0 38.185-.384 38.75-.948.556-.554.829-9.062.659-20.5l-.291-19.552H951.99zM1361 698.529c0 .841 2.287 9.728 5.082 19.75a7362 7362 0 0 1 9.441 34.221c4.517 16.576 6.884 25.151 20.423 74a83843 83843 0 0 1 13.703 49.5c3.115 11.275 6.099 21.063 6.63 21.75.729.943 7.328 1.25 26.865 1.25h25.899l.957-2.25c.526-1.237 3.179-10.125 5.894-19.75s8.318-29.2 12.45-43.5c7.907-27.372 22.423-77.693 32.596-113 3.328-11.55 6.053-21.562 6.055-22.25.004-.971-6.439-1.25-28.895-1.25h-28.901l-1.106 4.75c-1.389 5.963-18.019 90.422-21.118 107.25-2.036 11.056-3.517 15.791-4.601 14.708-.187-.188-1.668-7.511-3.29-16.274s-5.438-28.984-8.478-44.934-6.89-36.2-8.556-45-3.267-17.013-3.558-18.25l-.53-2.25h-28.481c-24.889 0-28.481.193-28.481 1.529m185.461-.279c-.262.688-.361 46.025-.219 100.75l.258 99.5 26.773.266 26.773.267-.631-2.517c-.39-1.554-.208-2.516.477-2.516.803 0 1.108-26.825 1.108-97.559 0-64.031-.34-97.349-.989-96.948-.566.35-.734-.051-.393-.941.529-1.379-2.378-1.552-26.042-1.552-20.39 0-26.751.293-27.115 1.25m86.146.332c-1.087 2.834-.699 192.593.393 191.918.601-.371.994.903.985 3.191-.012 2.828-.265 3.422-.985 2.309-.533-.825-.969-1.05-.969-.5 0 3.368 1.384 3.538 26.539 3.268l24.93-.268.26-45.935c.151-26.54-.121-46.173-.642-46.5-.496-.311-.663-4.728-.371-9.815.631-11.002 2.269-12.21 4.747-3.5 3.628 12.75 38.967 101.688 41.727 105.016.81.976 7.149 1.205 27.665 1l26.614-.266v-201l-24.93-.268c-19.277-.207-25.112.02-25.735 1-1.358 2.14-1.041 84.013.323 83.171.811-.502.965.003.513 1.691-.354 1.323-.65 7.919-.657 14.656-.008 7.119-.415 12.25-.97 12.25-.527 0-2.059-3.487-3.406-7.75-5.012-15.861-35.984-94.554-40.635-103.244-1.033-1.931-2.072-2.006-27.931-2.006-23.569 0-26.932.194-27.465 1.582m174.841-.308c-.271.708-.371 9.824-.221 20.257l.273 18.969 20.467.19c11.257.105 21.267.399 22.244.655 1.681.44 1.791 4.774 2.033 80.31l.256 79.845h53l.256-79.456c.15-46.457.637-79.837 1.173-80.373.504-.504 10.964-.974 23.244-1.044l22.327-.127v-40l-72.279-.257c-58.205-.206-72.375-.005-72.773 1.031m192.795-.024c-.551.688-1.764 3.95-2.697 7.25-.932 3.3-5.904 20.175-11.048 37.5a42703 42703 0 0 0-15.996 54c-10.211 34.587-22.436 75.834-24.452 82.5-.998 3.3-2.543 8.414-3.433 11.365-.889 2.95-1.617 5.988-1.617 6.75 0 1.146 4.643 1.385 26.878 1.385 29.55 0 29.782-.048 28.91-5.991-.243-1.655-.162-3.009.18-3.009s1.425-3.937 2.406-8.75c.982-4.812 2.46-11.788 3.285-15.5l1.501-6.75h21.514c20.672 0 21.534.078 22.036 2 .288 1.1.879 2 1.313 2s.59.788.346 1.75c-.412 1.63 3.34 21.743 5.674 30.411l1.034 3.839h28.962c15.928 0 28.961-.306 28.961-.679 0-.735-28.881-97.935-32.037-107.821-1.053-3.3-4.443-14.55-7.532-25l-12.54-42.417c-3.808-12.879-7.421-24.016-8.029-24.75-1.558-1.877-52.118-1.955-53.619-.083m299.319.449c-1.048 2.73-.625 198.458.427 197.808.566-.35.734.051.393.941-.535 1.393 6.057 1.552 64.261 1.552l64.857.001-.224-20.751-.223-20.75-37.527-.262-37.526-.262v-2.988c0-1.643-.338-2.988-.75-2.988s-.856-7.6-.986-16.889c-.264-18.878.007-19.704 6.327-19.278 1.875.126 3.409-.234 3.409-.802 0-1.327 9.681-1.356 10.5-.031.671 1.085 48.159 1.452 50.918.393 2.315-.888 2.393-38.868.082-39.755-.825-.316-1.5-.139-1.5.393 0 1.304-21.694 1.274-22.5-.031-.344-.557-4.909-.993-10.309-.985-6.626.011-9.217.322-8.191.985 1.116.721.539.973-2.25.985-2.062.008-3.75-.435-3.75-.985s-.927-1-2.059-1-1.781.45-1.441 1 .141 1-.441 1-1.059-.45-1.059-1-1.377-1-3.059-1c-1.785 0-2.802.417-2.441 1 .34.55-.084 1-.941 1s-1.559-.45-1.559-1-1.8-1-4-1c-3.778 0-4-.167-4-3 0-1.65-.45-3-1-3-.611 0-1-4.667-1-12s.389-12 1-12c.55 0 1-1.35 1-3v-3h75.5v-40.5l-64.688-.133c-55.966-.115-64.764.065-65.25 1.332M1164 797.903v60.904l5.001.346c2.75.191 5 .066 5-.278-.001-.344 1.417-.909 3.15-1.255 10.378-2.076 20.033-11.229 24.653-23.372 1.621-4.261 3.513-10.898 4.204-14.748.692-3.85 1.465-7.363 1.719-7.808.635-1.109.896-32.629.273-32.941-.275-.138-1.233-3.862-2.13-8.275-2.228-10.971-7.089-20.588-13.17-26.056-5.836-5.247-12.244-7.42-21.882-7.42H1164zm861-40.402c0 2.894-4.493 22.106-5.294 22.637-.529.351-.716 1.036-.416 1.522.301.487-1.165 9.424-3.257 19.862s-3.603 19.315-3.359 19.728c.641 1.083 27.099.926 27.773-.165.311-.503.2-1.065-.247-1.25-1.142-.471-7.524-32.501-6.732-33.783.358-.579.24-1.052-.262-1.052s-1.694-4.163-2.648-9.25c-2.072-11.04-3.596-16.908-4.727-18.2-.457-.523-.831-.545-.831-.049"/></svg>